# xmcd CD database file
#
# Track frame offsets:
#	150
#	8846
#	14219
#	35024
#	52856
#
# Disc length: 960 seconds
#
# Revision: 0
# Processed by: cddbd v1.5.1PL0 Copyright (c) Steve Scherf et al.
# Submitted via: CDex 1.51
#
DISCID=3803be05
DTITLE=miami - GREAT COMPOSERS
DYEAR=1900
DGENRE=Techno
TTITLE0=ATAMI
TTITLE1=ファンシー
TTITLE2=カモメと私
TTITLE3=白玉ディスコ
TTITLE4=エース
EXTD=
EXTT0=
EXTT1=
EXTT2=
EXTT3=
EXTT4=
PLAYORDER=
